<svg xmlns="http://www.w3.org/2000/svg" xmlns:xlink="http://www.w3.org/1999/xlink" id="Layer_1" x="0" y="0" version="1.1" viewBox="0 0 500 300" xml:space="preserve" style="enable-background:new 0 0 500 300"><style type="text/css">.st0{fill:url(#SVGID_1_)}.st1{fill:url(#SVGID_2_)}.st2{fill:url(#SVGID_3_)}</style><linearGradient id="SVGID_1_" x1="349.769" x2="468.329" y1="869.041" y2="727.746" gradientTransform="matrix(1 0 0 1 0 -648.3937)" gradientUnits="userSpaceOnUse"><stop offset="0" style="stop-color:#507dff"/><stop offset=".119" style="stop-color:#566bf5"/><stop offset=".332" style="stop-color:#5e50e5"/><stop offset=".549" style="stop-color:#643cdb"/><stop offset=".769" style="stop-color:#6831d4"/><stop offset="1" style="stop-color:#692dd2"/></linearGradient><path d="M409,263.6c-12.5,0-22.7-10.5-22.7-23.3V59.7c0-12.8,10.2-23.3,22.7-23.3s22.7,10.5,22.7,23.3v180.6	C431.8,253.2,421.5,263.6,409,263.6z" class="st0"/><linearGradient id="SVGID_2_" x1="68.23" x2="295.442" y1="798.394" y2="798.394" gradientTransform="matrix(1 0 0 1 0 -648.3937)" gradientUnits="userSpaceOnUse"><stop offset="0" style="stop-color:#ff8c32"/><stop offset=".021" style="stop-color:#ff8935"/><stop offset=".208" style="stop-color:#ff7050"/><stop offset=".398" style="stop-color:#ff5e64"/><stop offset=".592" style="stop-color:#ff546f"/><stop offset=".795" style="stop-color:#ff5073"/><stop offset="1" style="stop-color:#ff5073"/></linearGradient><path d="M91.5,263.6c-5.9,0-11.9-2.3-16.5-6.8c-9.1-9.1-9.1-23.9,0-32.9L255.7,43.2c9.1-9.1,23.9-9.1,32.9,0	s9.1,23.9,0,32.9L108,256.8C103.4,261.3,97.5,263.6,91.5,263.6z" class="st1"/><linearGradient id="SVGID_3_" x1="204.558" x2="431.77" y1="798.394" y2="798.394" gradientTransform="matrix(1 0 0 1 0 -648.3937)" gradientUnits="userSpaceOnUse"><stop offset="0" style="stop-color:#e80d93"/><stop offset=".154" style="stop-color:#cf0b9a"/><stop offset=".358" style="stop-color:#b408a1"/><stop offset=".567" style="stop-color:#a006a6"/><stop offset=".778" style="stop-color:#9505a9"/><stop offset="1" style="stop-color:#9105aa"/></linearGradient><path d="M227.8,263.6c-5.9,0-11.9-2.3-16.5-6.8c-9.1-9.1-9.1-23.9,0-32.9L392,43.2c9.1-9.1,23.9-9.1,32.9,0	s9.1,23.9,0,32.9L244.3,256.8C239.8,261.3,233.9,263.6,227.8,263.6z" class="st2"/></svg>